<?xml version="1.0" encoding="UTF-8"?><svg id="a" xmlns="http://www.w3.org/2000/svg" viewBox="0 0 1080 1080"><path d="M153.9376,1080h149.344v-369.1986h292.0191v-130.515h-292.0191v-147.1278c0-64.1588,16.2149-113.5613,48.6637-148.2264,32.4488-34.6556,79.2739-51.9882,140.4777-51.9882,25.0801,0,45.917,1.8469,62.5108,5.5313,16.1841,3.6027,29.9957,7.5522,41.6218,11.8475l-.1208.38c14.7374,6.6489,34.6462,12.5401,59.7263,17.7114,25.0612,5.1524,52.7175,7.7476,82.9689,7.7476,52.3386,0,99.7142-9.7934,142.1458-29.3233,42.3937-19.5488,79.8055-49.232,112.2732-89.0495,32.4299-39.8175,60.4461-90.3376,84.0676-151.5414l2.3844-6.2475h-154.2691c-16.0326,34.729-33.9547,62.7346-53.8706,83.6852-28.755,30.2325-61.2227,48.1144-97.3464,53.6457-36.1426,5.5313-75.9601,1.667-119.4525-11.6119l-17.7114-5.5313-.0403.1279c-14.6285-6.3186-34.7882-12.4714-60.8012-18.4549-27.2964-6.2606-60.484-9.405-99.5627-9.405-56.789,0-109.6958,12.0002-158.7384,35.9532-49.0426,23.972-88.6896,59.0064-118.9032,105.0845-30.2515,46.097-45.3677,102.6977-45.3677,169.7927v177.0003H0v130.515h153.9376v369.1986Z" style="fill:none;"/><path d="M993.5492,157.7889c-32.4677,39.8175-69.8795,69.5007-112.2732,89.0495-42.4316,19.5299-89.8072,29.3233-142.1458,29.3233-30.2515,0-57.9078-2.5951-82.9689-7.7476-25.0801-5.1714-44.9889-11.0625-59.7263-17.7114l.1208-.38c-11.6261-4.2953-25.4376-8.2448-41.6218-11.8475-16.5938-3.6844-37.4307-5.5313-62.5108-5.5313-61.2038,0-108.0289,17.3325-140.4777,51.9882-32.4488,34.6651-48.6637,84.0676-48.6637,148.2264v147.1278h292.0191v130.515h-292.0191v369.1986h776.7195V0l-2.3844,6.2475c-23.6215,61.2038-51.6377,111.7239-84.0676,151.5414Z" style="fill:#fff;"/><rect y="710.8014" width="153.9376" height="369.1986" style="fill:#fff;"/><path d="M153.9376,403.286c0-67.095,15.1163-123.6957,45.3677-169.7927,30.2136-46.0781,69.8606-81.1125,118.9032-105.0845,49.0426-23.953,101.9495-35.9532,158.7384-35.9532,39.0787,0,72.2663,3.1445,99.5627,9.405,26.013,5.9835,46.1728,12.1363,60.8012,18.4549l.0403-.1279,17.7114,5.5313c43.4924,13.2788,83.3099,17.1431,119.4525,11.6119,36.1237-5.5313,68.5914-23.4131,97.3464-53.6457,19.9159-20.9506,37.838-48.9562,53.8706-83.6852H0v580.2863h153.9376v-177.0003Z" style="fill:#fff;"/></svg>